<svg width="50" height="50" xmlns="http://www.w3.org/2000/svg" fill="none">
 <defs>
  <linearGradient y2="0.89024" x2="0.51123" y1="0.02242" x1="0.27986" id="paint1_linear">
   <stop stop-color="#FFEA83"/>
   <stop stop-color="#FFDD35" offset="0.08333"/>
   <stop stop-color="#FFA800" offset="1"/>
  </linearGradient>
 </defs>
 <g>
  <title>Layer 1</title>
  <path stroke="null" id="svg_2" fill="url(#paint1_linear)" d="m30.95083,8.40749l-13.78622,2.70568c-0.22659,0.04447 -0.39437,0.2368 -0.40803,0.46762l-0.84804,14.34584c-0.01995,0.33783 0.28987,0.59992 0.61913,0.5239l3.83833,-0.88717c0.35898,-0.08289 0.68338,0.2338 0.60964,0.59564l-1.1404,5.59309c-0.0766,0.37642 0.2761,0.69824 0.64337,0.58649l2.37054,-0.72139c0.36756,-0.11175 0.72082,0.21122 0.64279,0.58792l-1.81206,8.78534c-0.11347,0.54962 0.6165,0.84915 0.92061,0.37813l0.2035,-0.31468l11.23362,-22.45495c0.18807,-0.37602 -0.13633,-0.80474 -0.54848,-0.72505l-3.9508,0.76364c-0.37127,0.07174 -0.68738,-0.27438 -0.58249,-0.63834l2.57861,-8.9536c0.10489,-0.36444 -0.21207,-0.71105 -0.58363,-0.63811z"/>
  <path stroke="null" fill="#939393" d="m25.00403,0.27081c-11.29906,0 -21.1546,7.63201 -23.96716,18.55982c-0.09488,0.36713 0.12633,0.74302 0.49414,0.83789c0.36713,0.09281 0.74236,-0.12768 0.83655,-0.49549c0.0079,-0.0307 0.01749,-0.06065 0.02551,-0.09131c0.00157,-0.00535 0.00526,-0.00936 0.00671,-0.01477c0.2695,-1.01956 0.61348,-2.03471 1.02185,-3.0199c0.00307,-0.00743 0.00124,-0.01536 0.00403,-0.02283c3.57699,-8.60674 12.03093,-14.37842 21.57837,-14.37842c12.88719,0 23.37097,10.48378 23.37097,23.37097c0,0.38019 0.308,0.6875 0.6875,0.6875c0.3795,0 0.6875,-0.30731 0.6875,-0.6875c0,-13.6455 -11.10116,-24.74597 -24.74597,-24.74597zm-0.00403,3.43616c-11.75144,0 -21.3125,9.56038 -21.3125,21.3125c0,11.75213 9.56106,21.3125 21.3125,21.3125c11.75144,0 21.3125,-9.56038 21.3125,-21.3125c0,-5.71725 -2.23333,-11.08548 -6.28821,-15.1156c-0.13475,-0.13338 -0.35203,-0.13341 -0.48609,0.00135c-0.13406,0.13475 -0.1334,0.35271 0.00135,0.48608c3.92425,3.90088 6.08545,9.09517 6.08545,14.62817c0,11.37263 -9.25238,20.625 -20.625,20.625c-11.37263,0 -20.625,-9.25238 -20.625,-20.625c0,-11.37263 9.25238,-20.625 20.625,-20.625c2.44063,0 4.82912,0.42224 7.09924,1.25549c0.18013,0.06531 0.37715,-0.02601 0.44177,-0.20545c0.06531,-0.17806 -0.02604,-0.37443 -0.2041,-0.44043c-2.34644,-0.86006 -4.81517,-1.29712 -7.33692,-1.29712zm9.30139,2.16186c-0.1339,-0.00789 -0.26556,0.06332 -0.32898,0.19068c-0.08319,0.16844 -0.01474,0.37532 0.15576,0.46057c0.45994,0.22825 0.91489,0.47465 1.35352,0.73315c0.16363,0.09625 0.37438,0.04144 0.47132,-0.12219c0.03231,-0.055 0.047,-0.11475 0.047,-0.17456c0,-0.11756 -0.05987,-0.23216 -0.16919,-0.29541c-0.45238,-0.26675 -0.9228,-0.52152 -1.39648,-0.75733c-0.04263,-0.02097 -0.0883,-0.03228 -0.13294,-0.03491zm2.67077,1.6355c-0.08663,0.01513 -0.1669,0.0643 -0.22155,0.14233c-0.10863,0.154 -0.07281,0.36871 0.08325,0.47803c0.22825,0.16088 0.45335,0.32567 0.67541,0.49548c0.15125,0.11481 0.36655,0.0868 0.48205,-0.06445c0.04813,-0.06256 0.07117,-0.13659 0.07117,-0.20947c0,-0.10313 -0.04559,-0.20521 -0.13428,-0.27259c-0.22894,-0.17531 -0.46309,-0.34591 -0.69959,-0.5116c-0.07734,-0.05466 -0.16985,-0.07286 -0.25647,-0.05774zm-35.99707,15.98706c-0.39463,-0.02475 -0.69727,0.28383 -0.71033,0.66333c-0.00963,0.28394 -0.01477,0.56741 -0.01477,0.84998c0,1.05806 0.06997,2.12715 0.20679,3.17834c0.04469,0.3465 0.33913,0.59888 0.67944,0.59888c0.02956,0 0.05972,-0.00125 0.08997,-0.00538c0.37675,-0.04813 0.64232,-0.394 0.59351,-0.77075c-0.12925,-0.99206 -0.1947,-2.00147 -0.1947,-3.0011c0,-0.26675 0.00449,-0.53554 0.01343,-0.80298c0.01306,-0.3795 -0.28383,-0.69727 -0.66333,-0.71033zm1.05676,7.75183c-0.08888,-0.0098 -0.18132,-0.0013 -0.27259,0.02551c-0.363,0.10931 -0.56988,0.49301 -0.46057,0.85669c0.38638,1.28563 0.88184,2.5492 1.47034,3.7544c0.11894,0.24474 0.36262,0.38537 0.61768,0.38537c0.10106,0 0.2045,-0.0217 0.30212,-0.06982c0.341,-0.16638 0.48262,-0.57746 0.31556,-0.91846c-0.55619,-1.13919 -1.02336,-2.3321 -1.38843,-3.5476c-0.08198,-0.27225 -0.31747,-0.4567 -0.58411,-0.48609zm3.47107,7.02942c-0.17343,-0.02965 -0.35891,0.00648 -0.51428,0.11683c-0.30938,0.22 -0.38179,0.64936 -0.16248,0.95874c0.77756,1.09656 1.6503,2.1355 2.59424,3.08837c0.13406,0.13613 0.31005,0.20411 0.48742,0.20411c0.17531,0 0.35068,-0.06604 0.48474,-0.19873c0.27019,-0.26744 0.27147,-0.70199 0.00403,-0.97217c-0.891,-0.89994 -1.71497,-1.88112 -2.44922,-2.9165c-0.11,-0.15469 -0.27103,-0.25099 -0.44446,-0.28064zm36.34216,3.25086c-0.17591,-0.00189 -0.35298,0.06401 -0.48876,0.19739c-0.25369,0.24956 -0.51213,0.48929 -0.77613,0.7251c-0.28325,0.253 -0.30806,0.68758 -0.05506,0.97083c0.13613,0.15263 0.32387,0.22961 0.51294,0.22961c0.16225,0 0.32657,-0.05769 0.45788,-0.17456c0.27981,-0.25025 0.55362,-0.50541 0.82312,-0.76941c0.27156,-0.26606 0.27546,-0.7006 0.0094,-0.97217c-0.13269,-0.13544 -0.30748,-0.2049 -0.4834,-0.20679zm-28.92334,3.56641c-0.26584,-0.03487 -0.53879,0.08922 -0.68213,0.33569c-0.19181,0.32725 -0.08086,0.74813 0.24707,0.93994c0.96456,0.56444 1.97971,1.07012 3.0199,1.50257c0.00219,0.00091 0.00452,0.00045 0.00671,0.00134c0.34568,0.14402 0.69428,0.27847 1.04334,0.40552c0.077,0.0275 0.15595,0.04163 0.23364,0.04163c0.28119,0 0.54413,-0.17405 0.64588,-0.45386c0.12925,-0.35681 -0.05473,-0.75161 -0.41223,-0.88086c-0.33069,-0.11963 -0.66034,-0.24722 -0.98828,-0.38403c-0.98313,-0.40769 -1.9438,-0.8865 -2.85474,-1.41931c-0.08198,-0.04813 -0.17054,-0.077 -0.25915,-0.08863zm22.20142,1.05273c-0.08926,0.0032 -0.17993,0.02458 -0.26587,0.06445c-0.37881,0.17669 -0.76435,0.34211 -1.1521,0.49817l-0.16785,0.06714c-0.35406,0.13681 -0.52959,0.5362 -0.39209,0.89026c0.10588,0.27225 0.3655,0.43775 0.6405,0.43775c0.0825,0 0.16794,-0.01331 0.24976,-0.047l0.18261,-0.07251c0.41044,-0.16569 0.81908,-0.34071 1.22058,-0.52771c0.34444,-0.16019 0.4932,-0.56999 0.33301,-0.91443c-0.12014,-0.25781 -0.38079,-0.40572 -0.64856,-0.39612zm-5.72961,1.83154c-0.47094,0.09075 -0.94769,0.16643 -1.41932,0.22693c-0.37675,0.04881 -0.64232,0.394 -0.59351,0.77075c0.04469,0.3465 0.33913,0.59888 0.67944,0.59888c0.02956,0 0.05906,-0.00262 0.08863,-0.00537c0.49981,-0.06463 1.00612,-0.14477 1.50525,-0.2417c0.37263,-0.07219 0.61667,-0.43304 0.54517,-0.80566c-0.07219,-0.37263 -0.43167,-0.61945 -0.80566,-0.54383zm-7.16101,0.25513c-0.37881,-0.04744 -0.71935,0.22481 -0.76404,0.60156c-0.04469,0.37744 0.22481,0.718 0.60156,0.76269c0.50669,0.05981 1.01683,0.10609 1.51733,0.13428c0.01306,0.00069 0.02654,0.00135 0.04029,0.00135c0.36163,0 0.66487,-0.28284 0.68481,-0.64722c0.022,-0.3795 -0.26772,-0.70513 -0.64722,-0.72644c-0.47644,-0.0275 -0.95492,-0.06916 -1.43274,-0.12622z"/>
 </g>
</svg>